HIERARCHY
ROOT Hips
{
	OFFSET 0.00 0.00 0.00
	CHANNELS 6 Xposition Yposition Zposition Xrotation Yrotation Zrotation
	JOINT LeftUpLeg
	{
		OFFSET 3.10215 0.00000 0.00000
		CHANNELS 3 Xrotation Yrotation Zrotation
		JOINT LeftLeg
		{
			OFFSET 0.00000 -16.83331 0.00000
			CHANNELS 3 Xrotation Yrotation Zrotation
			JOINT LeftFoot
			{
				OFFSET 0.00000 -15.53879 0.00000
				CHANNELS 3 Xrotation Yrotation Zrotation
				JOINT LeftToeBase
				{
					OFFSET 0.00000 -1.57366 5.87297
					CHANNELS 3 Xrotation Yrotation Zrotation
					End Site
					{
						OFFSET 0.00000 0.00000 2.95275
					}
				}
			}
		}
	}
	JOINT RightUpLeg
	{
		OFFSET -3.10215 0.00000 0.00000
		CHANNELS 3 Xrotation Yrotation Zrotation
		JOINT RightLeg
		{
			OFFSET 0.00000 -16.83331 0.00000
			CHANNELS 3 Xrotation Yrotation Zrotation
			JOINT RightFoot
			{
				OFFSET 0.00000 -15.53879 0.00000
				CHANNELS 3 Xrotation Yrotation Zrotation
				JOINT RightToeBase
				{
					OFFSET 0.00000 -1.57366 5.87297
					CHANNELS 3 Xrotation Yrotation Zrotation
					End Site
					{
						OFFSET 0.00000 0.00000 2.95275
					}
				}
			}
		}
	}
	JOINT Spine
	{
		OFFSET 0.00000 0.03937 0.00000
		CHANNELS 3 Xrotation Yrotation Zrotation
		JOINT Spine1
		{
			OFFSET 0.00000 8.31046 0.00000
			CHANNELS 3 Xrotation Yrotation Zrotation
			JOINT Neck
			{
				OFFSET 0.00000 6.25463 0.00000
				CHANNELS 3 Xrotation Yrotation Zrotation
				JOINT Head
				{
					OFFSET 0.00000 8.60817 0.00000
					CHANNELS 3 Xrotation Yrotation Zrotation
					End Site
					{
						OFFSET 0.00000 4.52755 0.00000
					}
				}
			}
			JOINT LeftShoulder
			{
				OFFSET 0.00000 6.25463 0.00000
				CHANNELS 3 Xrotation Yrotation Zrotation
				JOINT LeftArm
				{
					OFFSET 7.44857 -0.00003 0.00000
					CHANNELS 3 Xrotation Yrotation Zrotation
					JOINT LeftForeArm
					{
						OFFSET 10.73545 -0.00004 0.00000
						CHANNELS 3 Xrotation Yrotation Zrotation
						JOINT LeftHand
						{
							OFFSET 10.15840 -0.00004 0.00000
							CHANNELS 3 Xrotation Yrotation Zrotation
							JOINT LeftHandThumb
							{
								OFFSET 0.00000 0.00000 0.00000
								CHANNELS 3 Xrotation Yrotation Zrotation
								End Site
								{
									OFFSET 0.00000 0.00000 3.93700
								}
							}
							JOINT L_Wrist_End
							{
								OFFSET 3.93700 -0.00001 0.00000
								CHANNELS 3 Xrotation Yrotation Zrotation
							}
						}
					}
				}
			}
			JOINT RightShoulder
			{
				OFFSET 0.00000 6.25463 0.00000
				CHANNELS 3 Xrotation Yrotation Zrotation
				JOINT RightArm
				{
					OFFSET -7.44857 -0.00003 0.00000
					CHANNELS 3 Xrotation Yrotation Zrotation
					JOINT RightForeArm
					{
						OFFSET -10.73545 -0.00004 0.00000
						CHANNELS 3 Xrotation Yrotation Zrotation
						JOINT RightHand
						{
							OFFSET -10.15840 -0.00004 0.00000
							CHANNELS 3 Xrotation Yrotation Zrotation
							JOINT RightHandThumb
							{
								OFFSET 0.00000 0.00000 0.00000
								CHANNELS 3 Xrotation Yrotation Zrotation
								End Site
								{
									OFFSET 0.00000 0.00000 3.93700
								}
							}
							JOINT R_Wrist_End
							{
								OFFSET -5.39369 -0.00002 0.00000
								CHANNELS 3 Xrotation Yrotation Zrotation
							}
						}
					}
				}
			}
		}
	}
}
MOTION
Frames: 17
Frame Time: 0.008333
 80.2619 33.5573 -23.2184 173.2817 -43.1248 169.6909 -21.6232 -3.3545 7.3173 61.9648 -0.0000 0.0000 -14.3860 12.7665 -22.5677 -2.6208 0.0000 -0.0000 3.4856 0.5790 2.6873 -2.1564 0.0000 0.0000 -15.1256 -5.0285 4.6805 3.0292 -0.0000 0.0000 -4.6987 1.5862 2.6818 1.4541 -0.5726 3.2053 20.8536 12.7027 2.0036 -10.6406 -14.8600 1.2675 18.6411 -4.7277 22.5339 -8.9731 -18.0312 -92.4648 -0.0001 -23.4920 -0.0000 -9.2091 2.2698 -1.5896 0.0000 -0.0000 -0.0000 0.0000 -0.0000 -0.0000 14.6488 0.3246 -17.1322 -15.1484 -0.3211 84.5594 -0.0001 19.5173 0.0000 -31.8132 18.9205 20.1352 0.0000 0.0000 0.0000 0.0000 0.0000 0.0000
 80.1066 33.5467 -23.4558 173.1567 -42.8519 169.7935 -22.9283 -2.9205 6.7173 61.2070 0.0000 -0.0000 -14.7710 13.6520 -22.1782 -2.6096 0.0000 0.0000 3.7333 0.5136 2.5920 -1.9533 -0.0000 0.0000 -15.5256 -4.7357 4.5042 2.9677 -0.0000 -0.0000 -4.6960 1.6937 2.6397 1.3933 -0.4650 3.1011 20.9741 12.7551 1.9302 -10.6185 -14.7436 1.1501 18.8250 -4.4848 22.4268 -8.4411 -17.4811 -92.8892 -0.0001 -23.5904 -0.0000 -9.5872 2.1738 -1.6731 0.0000 -0.0000 -0.0000 0.0000 -0.0000 -0.0000 14.6422 0.4754 -17.1575 -15.6297 -0.1637 83.9422 -0.0001 20.4176 0.0000 -32.4787 18.8284 20.4527 0.0000 -0.0000 -0.0000 0.0000 -0.0000 -0.0000
 79.9494 33.5337 -23.6860 172.8958 -42.6557 169.8865 -24.2793 -2.5152 6.0249 60.2305 -0.0000 0.0000 -14.9855 14.4389 -21.8020 -2.4044 0.0000 -0.0000 3.8586 0.0679 2.3960 -1.6466 -0.0000 0.0000 -15.9928 -4.0616 4.3568 3.1490 -0.0000 0.0000 -4.7509 1.8065 2.5791 1.3619 -0.3488 2.9035 21.0399 12.7101 1.8723 -10.7003 -14.6202 1.0660 18.8263 -4.4117 22.3184 -7.6854 -16.8925 -93.2405 -0.0001 -23.7624 -0.0000 -9.9623 2.1066 -1.9044 0.0000 -0.0000 0.0000 0.0000 -0.0000 0.0000 14.5796 0.4767 -17.1148 -16.1552 -0.2319 83.3814 -0.0001 21.3258 0.0000 -32.9156 18.6098 20.7935 -0.0000 -0.0000 -0.0000 -0.0000 -0.0000 -0.0000
 79.7882 33.5150 -23.9227 172.7085 -42.4496 169.9555 -25.5043 -2.0544 5.4548 59.0738 0.0000 0.0000 -15.1435 15.0874 -21.6572 -2.3317 0.0000 -0.0000 4.0609 -0.1947 2.2797 -1.3938 -0.0000 0.0000 -16.4408 -3.6202 4.2159 3.1974 0.0000 0.0000 -4.7764 1.8936 2.5540 1.3160 -0.2613 2.7341 21.1493 12.7285 1.8066 -10.7599 -14.4830 0.9804 19.0309 -4.0979 22.2508 -7.2217 -16.3303 -93.6713 -0.0001 -23.9037 -0.0000 -10.2519 2.1780 -2.1173 -0.0000 -0.0000 0.0000 -0.0000 -0.0000 0.0000 14.5328 0.5906 -17.1234 -16.6389 -0.2114 82.8334 -0.0001 22.1421 0.0000 -33.5133 18.4876 21.1491 0.0000 -0.0000 -0.0000 0.0000 -0.0000 -0.0000
 79.6251 33.4946 -24.1622 172.5001 -42.2763 170.0020 -26.6694 -1.6198 4.9193 57.6970 -0.0000 0.0000 -15.0428 15.6600 -21.7455 -2.2588 0.0000 0.0000 4.2917 -0.2880 2.1491 -1.2223 0.0000 0.0000 -16.8426 -3.3288 4.0492 3.1360 0.0000 -0.0000 -4.8222 1.9877 2.5308 1.2966 -0.1654 2.5486 21.1748 12.7181 1.7554 -10.6937 -14.3615 0.9592 19.1144 -3.9311 22.1992 -6.6217 -15.8016 -94.0741 -0.0001 -23.9989 -0.0000 -10.6684 2.1273 -2.3545 -0.0000 0.0000 -0.0000 -0.0000 0.0000 -0.0000 14.4628 0.6758 -17.1054 -17.1020 -0.2357 82.3077 -0.0001 22.9386 0.0000 -34.0510 18.3369 21.5000 0.0000 -0.0000 -0.0000 0.0000 -0.0000 -0.0000
 79.4605 33.4691 -24.4052 172.3037 -42.1219 170.0419 -27.7565 -1.1770 4.4272 56.1395 -0.0000 0.0000 -14.9169 16.0063 -21.7911 -2.1840 -0.0000 -0.0000 4.5565 -0.2909 2.0589 -1.0814 -0.0000 0.0000 -17.2521 -3.1963 3.7983 3.1528 -0.0000 0.0000 -4.8312 2.0742 2.4993 1.2340 -0.0794 2.3668 21.1727 12.7297 1.7086 -10.5625 -14.2512 0.9634 19.1760 -3.7596 22.1581 -5.9980 -15.3397 -94.5327 -0.0001 -24.0699 -0.0000 -10.9290 1.9318 -1.8127 0.0000 0.0000 0.0000 0.0000 0.0000 0.0000 14.4068 0.7711 -17.1063 -17.5374 -0.1436 81.8035 -0.0001 23.6772 0.0000 -34.6303 18.2882 21.7569 -0.0000 0.0000 -0.0000 -0.0000 0.0000 -0.0000
 79.2916 33.4403 -24.6502 172.0857 -41.9859 170.0813 -28.7792 -0.7310 3.9347 54.3813 -0.0000 0.0000 -14.6677 16.1777 -21.6911 -2.2651 0.0000 0.0000 4.8254 -0.1836 1.9316 -0.9647 -0.0000 -0.0000 -17.6917 -3.1421 3.6330 3.2491 -0.0000 0.0000 -4.8680 2.1687 2.4722 1.1822 0.0158 2.1558 21.1713 12.7183 1.6656 -10.4388 -14.1491 0.9661 19.2675 -3.6210 22.1353 -5.4023 -15.0178 -94.8969 -0.0001 -24.1793 -0.0000 -11.6630 1.8663 -1.6140 0.0000 0.0000 -0.0000 0.0000 0.0000 -0.0000 14.3462 0.8287 -17.1060 -17.9580 -0.1271 81.3576 -0.0001 24.4208 0.0000 -35.0793 18.2409 21.9406 0.0000 -0.0000 0.0000 0.0000 -0.0000 0.0000
 79.1158 33.4091 -24.8995 171.8940 -41.8631 170.1235 -29.7003 -0.2649 3.4865 52.4536 -0.0000 0.0000 -14.3344 16.1744 -21.5996 -2.2328 0.0000 0.0000 5.1205 -0.3554 1.8450 -0.7965 0.0000 -0.0000 -18.1482 -2.9252 3.4070 3.2698 0.0000 0.0000 -4.9050 2.2420 2.4549 1.1587 0.0899 1.9411 21.1521 12.7375 1.6122 -10.3052 -14.0473 0.9823 19.3677 -3.4529 22.1179 -4.9248 -14.6151 -95.2887 -0.0001 -24.0785 -0.0000 -12.1016 1.7985 -1.8362 0.0000 -0.0000 -0.0000 0.0000 -0.0000 -0.0000 14.2943 0.8984 -17.1024 -18.3996 -0.0818 80.9212 -0.0001 25.1092 0.0000 -35.3235 18.2549 22.0577 -0.0000 0.0000 -0.0000 -0.0000 0.0000 -0.0000
 78.9325 33.3750 -25.1493 171.6707 -41.7764 170.1882 -30.5725 0.1625 2.9717 50.3408 0.0000 0.0000 -13.8647 15.9553 -21.3769 -2.3652 0.0000 0.0000 5.4213 -0.4715 1.6961 -0.6608 -0.0000 -0.0000 -18.6172 -2.7491 3.1714 3.3363 -0.0000 -0.0000 -4.9914 2.3214 2.4287 1.1685 0.1726 1.6743 21.1380 12.7966 1.5119 -10.2187 -13.9780 1.0939 19.4396 -3.3475 22.1318 -4.4206 -14.3349 -95.6612 -0.0001 -24.0186 -0.0000 -12.4478 1.7493 -1.9023 -0.0000 0.0000 -0.0000 -0.0000 0.0000 -0.0000 14.2423 0.9668 -17.1124 -18.8059 -0.0537 80.5218 -0.0001 25.7440 0.0000 -35.5939 18.2711 22.2539 -0.0000 0.0000 0.0000 -0.0000 0.0000 0.0000
 78.7520 33.3386 -25.4110 171.5506 -41.6883 170.1555 -31.2796 0.5186 2.6597 48.0780 0.0000 0.0000 -13.4601 15.6497 -21.5802 -2.5521 0.0000 0.0000 5.8321 -0.3286 1.7336 -0.5858 -0.0000 -0.0000 -18.9672 -2.7886 2.5461 3.2815 0.0000 0.0000 -4.9652 2.4304 2.4521 1.0960 0.2772 1.5852 21.2273 12.8772 1.4148 -10.3233 -14.0363 1.0513 19.6547 -3.1449 22.0623 -4.1585 -14.2882 -95.9526 -0.0001 -23.8854 -0.0000 -12.6563 1.7927 -2.1905 -0.0000 0.0000 -0.0000 -0.0000 0.0000 -0.0000 14.1119 0.9992 -17.1978 -19.0661 -0.0924 80.2038 -0.0001 26.3815 0.0000 -35.5752 18.3729 22.2413 0.0000 0.0000 -0.0000 0.0000 0.0000 -0.0000
 78.5544 33.2995 -25.6631 171.2319 -41.6241 170.3059 -32.0184 0.9515 2.0157 45.5733 -0.0000 -0.0000 -12.9694 15.2120 -21.8421 -2.7020 -0.0000 0.0000 6.0487 -0.8509 1.4250 -0.3472 -0.0000 0.0000 -19.5234 -2.3350 2.6249 3.3987 0.0000 0.0000 -5.1402 2.4524 2.3460 1.1297 0.3079 1.1652 21.1622 12.8107 1.4409 -10.1153 -13.7840 1.0572 19.5931 -3.0835 22.1044 -3.4896 -14.0066 -96.2964 -0.0001 -23.8035 -0.0000 -12.8182 1.7723 -2.3612 -0.0000 0.0000 -0.0000 -0.0000 0.0000 -0.0000 14.2155 1.0760 -17.1368 -19.6626 0.1491 79.8145 -0.0001 26.8385 0.0000 -35.7895 18.5463 22.2594 -0.0000 -0.0000 -0.0000 -0.0000 -0.0000 -0.0000
 78.3621 33.2558 -25.9337 171.1229 -41.5061 170.2579 -32.5367 1.3461 1.7861 42.9977 -0.0000 0.0000 -12.6373 14.4579 -22.3079 -2.8463 0.0000 0.0000 6.4675 -0.9020 1.4776 -0.2244 0.0000 -0.0000 -19.8829 -2.1745 2.2462 3.3735 0.0000 0.0000 -5.1255 2.5783 2.3880 1.0342 0.4291 1.0928 21.2967 12.9343 1.3099 -10.2796 -13.8948 0.9963 19.7630 -2.9275 22.0224 -3.2385 -14.1642 -96.5749 -0.0001 -23.5770 -0.0000 -13.5082 1.4255 -1.7810 -0.0000 -0.0000 -0.0000 -0.0000 -0.0000 -0.0000 14.0757 1.1101 -17.2703 -19.8405 0.0802 79.5862 -0.0001 27.4238 0.0000 -35.6359 18.6238 22.1453 -0.0000 -0.0000 0.0000 -0.0000 -0.0000 0.0000
 78.1436 33.2152 -26.1912 170.8401 -41.3873 170.5626 -32.9756 1.8612 1.0720 40.0222 0.0000 -0.0000 -12.0217 13.6758 -22.7475 -3.0840 -0.0000 -0.0000 6.7240 -1.1297 1.0005 -0.0100 0.0000 -0.0000 -20.4364 -1.9392 2.1717 3.4417 -0.0000 -0.0000 -5.3889 2.6488 2.2529 1.2081 0.5115 0.5118 21.2016 12.7949 1.3960 -10.1021 -13.5736 1.0253 19.6938 -2.9073 22.0973 -2.5824 -13.6420 -96.8501 -0.0001 -23.5410 -0.0000 -13.1683 1.9032 -2.7493 -0.0000 0.0000 -0.0000 -0.0000 0.0000 -0.0000 14.1716 1.2219 -17.1725 -20.3949 0.3100 79.2546 -0.0001 27.7679 0.0000 -35.6544 18.9536 22.0071 0.0000 0.0000 -0.0000 0.0000 0.0000 -0.0000
 77.9213 33.1701 -26.4599 170.7288 -41.2503 170.8003 -33.2124 2.3334 0.5796 36.9685 -0.0000 -0.0000 -11.3632 12.6259 -23.2565 -3.3089 -0.0000 0.0000 7.1484 -1.3748 0.7256 0.1531 0.0000 0.0000 -20.9194 -1.6618 1.9347 3.5209 -0.0000 -0.0000 -5.5920 2.8830 2.2536 1.4274 0.7512 0.1082 21.2070 12.6621 1.3707 -10.1418 -13.5850 1.0625 19.8923 -2.9199 22.1569 -2.6457 -14.3131 -97.0501 -0.0001 -23.0594 -0.0000 -13.5604 1.3304 -1.8473 -0.0000 -0.0000 0.0000 -0.0000 -0.0000 0.0000 13.9937 1.1923 -17.2273 -20.5583 0.0910 79.1206 -0.0001 28.2532 0.0000 -35.4165 19.0925 21.8510 -0.0000 0.0000 0.0000 -0.0000 0.0000 0.0000
 77.7022 33.1222 -26.7337 170.5768 -41.1253 170.9541 -33.4230 2.7527 0.1587 33.8204 0.0000 0.0000 -10.5617 11.4664 -23.8376 -3.4452 0.0000 0.0000 7.5438 -1.5098 0.5150 0.3151 0.0000 -0.0000 -21.3554 -1.5021 1.6172 3.5006 -0.0000 -0.0000 -5.6304 2.8843 2.2141 1.3520 0.7517 -0.2980 21.2561 12.7145 1.3481 -10.1280 -13.3138 1.0160 19.8422 -2.6741 22.1122 -2.0923 -14.1854 -97.3232 -0.0001 -22.8299 -0.0000 -13.3201 1.3932 -1.8808 0.0000 -0.0000 0.0000 0.0000 -0.0000 0.0000 14.0801 1.3671 -17.2100 -20.9971 0.4467 78.8935 -0.0001 28.5061 0.0000 -35.4281 19.3810 21.6329 -0.0000 0.0000 0.0000 -0.0000 0.0000 0.0000
 77.4651 33.0730 -27.0069 170.4198 -40.9835 171.2401 -33.4800 3.2365 -0.3681 30.4333 0.0000 0.0000 -9.5103 10.1970 -24.6909 -3.7481 0.0000 0.0000 7.9560 -1.7322 0.1413 0.4611 0.0000 0.0000 -21.7989 -1.2844 1.3727 3.4320 0.0000 0.0000 -5.8028 3.0724 2.1833 1.4479 0.9445 -0.7979 21.2764 12.6174 1.3303 -10.1174 -13.2382 1.0394 19.9811 -2.6948 22.1392 -1.9069 -14.4202 -97.4623 -0.0001 -22.4781 -0.0000 -13.3577 1.3706 -1.8670 -0.0000 0.0000 -0.0000 -0.0000 0.0000 -0.0000 13.9845 1.3795 -17.2524 -21.1637 0.3349 78.8355 -0.0001 28.8812 0.0000 -35.1689 19.5008 21.3819 0.0000 -0.0000 -0.0000 0.0000 -0.0000 -0.0000
 77.2496 33.0168 -27.2945 170.2508 -40.8694 171.1240 -33.5996 3.4963 -0.5116 27.1632 0.0000 0.0000 -8.6284 8.9505 -25.3893 -3.8644 -0.0000 0.0000 8.3742 -1.8254 0.2177 0.5990 0.0000 -0.0000 -22.1352 -1.1895 0.9134 3.2743 -0.0000 -0.0000 -5.7963 3.1636 2.1984 1.2615 1.0338 -0.8806 21.3435 12.7168 1.2399 -10.1658 -13.2718 0.9435 20.0485 -2.4503 22.0292 -1.6796 -14.5476 -97.6750 -0.0001 -22.1450 -0.0000 -13.1481 1.6131 -2.0930 -0.0000 0.0000 -0.0000 -0.0000 0.0000 -0.0000 13.8360 1.4181 -17.3516 -21.2537 0.4217 78.7523 -0.0001 29.1533 0.0000 -35.0964 19.4900 21.4211 -0.0000 0.0000 -0.0000 -0.0000 0.0000 -0.0000
